<svg width="512" height="512" viewBox="0 0 512 512" fill="none" xmlns="http://www.w3.org/2000/svg">
<g clip-path="url(#clip0_13_112)">
<rect width="512" height="512" rx="100" fill="#B0B0B0"/>
<g filter="url(#filter0_d_13_112)">
<mask id="path-2-inside-1_13_112" fill="white">
<path fill-rule="evenodd" clip-rule="evenodd" d="M158.05 101.236C158.964 90.9143 167.61 83 177.972 83H339.303C351.045 83 360.261 93.0678 359.225 104.764L352.74 178H151.253L158.05 101.236ZM148.596 208H350.084L343.531 282H142.044L148.596 208ZM139.387 312L133.079 383.236C132.044 394.932 141.26 405 153.002 405H314.333C324.695 405 333.341 397.086 334.255 386.764L340.875 312H139.387Z"/>
</mask>
<path fill-rule="evenodd" clip-rule="evenodd" d="M158.05 101.236C158.964 90.9143 167.61 83 177.972 83H339.303C351.045 83 360.261 93.0678 359.225 104.764L352.74 178H151.253L158.05 101.236ZM148.596 208H350.084L343.531 282H142.044L148.596 208ZM139.387 312L133.079 383.236C132.044 394.932 141.26 405 153.002 405H314.333C324.695 405 333.341 397.086 334.255 386.764L340.875 312H139.387Z" fill="white"/>
<path d="M158.05 101.236L176.976 102.912L158.05 101.236ZM359.225 104.764L340.299 103.088V103.088L359.225 104.764ZM352.74 178V197H370.132L371.666 179.676L352.74 178ZM151.253 178L132.327 176.324L130.496 197H151.253V178ZM350.084 208L369.01 209.676L370.841 189H350.084V208ZM148.596 208V189H131.204L129.67 206.324L148.596 208ZM343.531 282V301H360.923L362.457 283.676L343.531 282ZM142.044 282L123.118 280.324L121.287 301H142.044V282ZM139.387 312V293H121.995L120.461 310.324L139.387 312ZM133.079 383.236L114.154 381.56L133.079 383.236ZM334.255 386.764L315.329 385.088L334.255 386.764ZM340.875 312L359.801 313.676L361.632 293H340.875V312ZM177.972 64C157.766 64 140.906 79.4329 139.124 99.5601L176.976 102.912C177.022 102.396 177.454 102 177.972 102V64ZM339.303 64H177.972V102H339.303V64ZM378.151 106.44C380.171 83.6323 362.2 64 339.303 64V102C339.89 102 340.351 102.503 340.299 103.088L378.151 106.44ZM371.666 179.676L378.151 106.44L340.299 103.088L333.814 176.324L371.666 179.676ZM151.253 197H352.74V159H151.253V197ZM139.124 99.5601L132.327 176.324L170.179 179.676L176.976 102.912L139.124 99.5601ZM350.084 189H148.596V227H350.084V189ZM362.457 283.676L369.01 209.676L331.158 206.324L324.605 280.324L362.457 283.676ZM142.044 301H343.531V263H142.044V301ZM129.67 206.324L123.118 280.324L160.97 283.676L167.522 209.676L129.67 206.324ZM120.461 310.324L114.154 381.56L152.005 384.912L158.313 313.676L120.461 310.324ZM114.154 381.56C112.134 404.368 130.105 424 153.002 424V386C152.414 386 151.954 385.497 152.005 384.912L114.154 381.56ZM153.002 424H314.333V386H153.002V424ZM314.333 424C334.539 424 351.398 408.567 353.181 388.44L315.329 385.088C315.283 385.604 314.851 386 314.333 386V424ZM353.181 388.44L359.801 313.676L321.949 310.324L315.329 385.088L353.181 388.44ZM340.875 293H139.387V331H340.875V293Z" fill="white" mask="url(#path-2-inside-1_13_112)"/>
</g>
<path fill-rule="evenodd" clip-rule="evenodd" d="M176.972 83C166.61 83 157.964 90.9143 157.05 101.236L150.253 178H239.863L299.077 83H176.972Z" fill="#E0E0E0"/>
<ellipse cx="177.5" cy="337.5" rx="28.5" ry="14.5" fill="#E0E0E0"/>
<path d="M200.662 357.654L197.875 338.715L186.427 344.854L200.662 357.654Z" fill="#E0E0E0"/>
<path fill-rule="evenodd" clip-rule="evenodd" d="M240.128 405L209.039 312H340.875L334.255 386.764C333.341 397.086 324.695 405 314.333 405H240.128ZM347.139 241.253L343.531 282H199.01L195.5 271.5L347.139 241.253Z" fill="#E0E0E0"/>
</g>
<defs>
<filter id="filter0_d_13_112" x="133" y="83" width="246.405" height="350.1" filterUnits="userSpaceOnUse" color-interpolation-filters="sRGB">
<feFlood flood-opacity="0" result="BackgroundImageFix"/>
<feColorMatrix in="SourceAlpha" type="matrix" values="0 0 0 0 0 0 0 0 0 0 0 0 0 0 0 0 0 0 127 0" result="hardAlpha"/>
<feOffset dx="20" dy="28"/>
<feGaussianBlur stdDeviation="0.05"/>
<feComposite in2="hardAlpha" operator="out"/>
<feColorMatrix type="matrix" values="0 0 0 0 0 0 0 0 0 0 0 0 0 0 0 0 0 0 0.25 0"/>
<feBlend mode="normal" in2="BackgroundImageFix" result="effect1_dropShadow_13_112"/>
<feBlend mode="normal" in="SourceGraphic" in2="effect1_dropShadow_13_112" result="shape"/>
</filter>
<clipPath id="clip0_13_112">
<rect width="512" height="512" fill="white"/>
</clipPath>
</defs>
</svg>
